<svg height="24" viewBox="0 0 24 24" width="24" xmlns="http://www.w3.org/2000/svg"><path d="m11.75 5.25c.3796958 0 .693491.27242444.7431534.6258767l.0068466.09826123-.0000024 11.11886207 2.4528495-2.3775056c.2832977-.2747128.7579245-.2886315 1.0601087-.0310883.274713.2341303.3123402.6120089.1040654.8851749l-.0698683.0785599-3.75 3.6363621c-.2693684.2612055-.7084807.2849515-1.0087116.0712379l-.0855942-.0712379-3.75-3.6363621c-.28329769-.2747127-.26798715-.7061915.03419705-.9637348.27471292-.2341302.69194042-.2439117.97837536-.0373594l.08173339.0684477 2.4528447 2.3775056.0000024-11.11886207c0-.39993034.3357864-.72413793.75-.72413793z" fill="currentColor" fill-rule="evenodd"/></svg>
