<svg height="24" viewBox="0 0 24 24" width="24" xmlns="http://www.w3.org/2000/svg"><path d="m12 0c6.617 0 12 5.383 12 12s-5.383 12-12 12-12-5.383-12-12 5.383-12 12-12zm0 1.5c-5.79 0-10.5 4.71-10.5 10.5s4.71 10.5 10.5 10.5 10.5-4.71 10.5-10.5-4.71-10.5-10.5-10.5zm-2.262 4.68147379c.315.269.351.743.081 1.057l-3.439 4.01300001h12.87c.414 0 .75.336.75.75s-.336.75-.75.75h-12.869l3.438 4.011c.27.314.234.788-.081 1.057-.141.121-.315.181-.488.181-.211 0-.421-.089-.569-.262l-4.5-5.25c-.03-.034-.044-.074-.066-.112-.02-.034-.045-.065-.06-.103-.033-.084-.051-.172-.053-.261l-.001-.0055-.001-.0065c0-.093.021-.186.056-.274.012-.032.034-.058.05-.088.025-.042.042-.088.075-.126l4.5-5.25000001c.269-.315.742-.352 1.057-.081z" fill="currentColor" fill-rule="evenodd"/></svg>
