<svg height="24" viewBox="0 0 24 24" width="24" xmlns="http://www.w3.org/2000/svg"><path d="m18.2047739 6.50063162h-12.67454777c-1.15620355.04748112-2.0878582.96421372-2.154 2.1195l-1.99075317 11.75996938c-.09253309.6539569.08824579 1.2962034.49515123 1.7903231.40690543.4941197 1.00255709.7947203 1.64176227.828529l16.65061354.0010469c.6788187-.0348556 1.2744704-.3354562 1.6813758-.8295759s.5876843-1.1363662.498271-1.7701892l-2.0031198-11.86213391c-.0568949-1.07325565-.9885496-1.98998825-2.1447531-2.03746937zm-12.70767267 1.5086558.08489877-.00928742h12.592c.3546273.01519542.6651789.32077295.6872261.70586838l2.0092469 11.92403062c.0275463.1972482-.0344554.4175194-.1740117.5869875s-.3438468.272565-.5630748.2841604l-16.5713865-.0010469c-.17961452-.0105485-.38390504-.1136454-.5234613-.2831135-.13955627-.1694681-.20155796-.3897393-.1708919-.6071214l1.99688024-11.82186609c.02868625-.42819888.29202634-.72065214.63257419-.77861159zm6.37312727-7.50928411c2.1609172.00642095 4.0140385 1.54373214 4.4194539 3.6662878.0777114.40685848-.189115.79967995-.5959735.87739132-.4068585.07771138-.79968-.18911507-.8773913-.59597354-.2706663-1.41707516-1.5078598-2.4434254-2.9460612-2.44770558-1.4370446.0043168-2.67116716 1.02258523-2.94833896 2.43265323-.0798916.40643598-.474138.67115251-.88057398.5912609-.40643598-.0798916-.67115251-.474138-.5912609-.88057398.41511396-2.11182712 2.26343158-3.63686485 4.42014594-3.64334015z" fill="currentColor" fill-rule="evenodd"/></svg>
