<svg height="24" viewBox="0 0 24 24" width="24" xmlns="http://www.w3.org/2000/svg"><path d="m17.25 10.5c3.722 0 6.75 3.028 6.75 6.75s-3.028 6.75-6.75 6.75-6.75-3.028-6.75-6.75 3.028-6.75 6.75-6.75zm0 1.5c-2.895 0-5.25 2.355-5.25 5.25s2.355 5.25 5.25 5.25 5.25-2.355 5.25-5.25-2.355-5.25-5.25-5.25zm2.673 2.755c.163 0 .318.052.449.149.332.249.399.72.151 1.051l-2.905 3.874c-.242.321-.593.529-.99.585-.07.01-.141.015-.212.015-.326 0-.638-.104-.9-.302-.054-.04-.108-.087-.159-.138l-1.5-1.5c-.142-.142-.22-.33-.22-.53s.078-.389.22-.53.33-.22.53-.22.389.078.53.22l1.5 1.5 2.906-3.874c.141-.188.365-.3.6-.3zm-5.723-14.755c.753.002 1.452.376 1.869 1.002l2.781 4.168c.42.425.65.984.65 1.58v1.5c0 .414-.336.75-.75.75s-.75-.336-.75-.75v-1.5c0-.414-.336-.75-.75-.75h-15c-.414 0-.75.336-.75.75v10.5c0 .414.336.75.75.75h6c.414 0 .75.336.75.75s-.336.75-.75.75h-6c-1.241 0-2.25-1.009-2.25-2.25v-10.5c0-.596.231-1.156.651-1.58l2.777-4.168c.418-.627 1.118-1.002 1.872-1.002zm2.399 4.5-1.778-2.666c-.139-.209-.372-.334-.623-.334h-3.698v3zm-7.599 0v-3h-3.7c-.251 0-.485.125-.624.334l-1.777 2.666z" fill="currentColor" fill-rule="evenodd"/></svg>
