<svg height="24" viewBox="0 0 24 24" width="24" xmlns="http://www.w3.org/2000/svg"><path d="m18.526 0c.892 0 1.699.525 2.06 1.337l2.397 5.85c.174.326.267.693.267 1.063v13.5c0 1.241-1.009 2.25-2.25 2.25h-18c-1.241 0-2.25-1.009-2.25-2.25v-13.5c0-.37.092-.737.267-1.062l2.388-5.831c.369-.828 1.177-1.357 2.066-1.357zm2.474 7.5h-18c-.414 0-.75.336-.75.75v13.5c0 .414.336.75.75.75h18c.414 0 .75-.336.75-.75v-13.5c0-.414-.336-.75-.75-.75zm-2.25 10.5c.414 0 .75.336.75.75s-.336.75-.75.75h-4.5c-.414 0-.75-.336-.75-.75s.336-.75.75-.75zm-.221-16.5h-5.779v4.5h8.125l-1.669-4.075c-.113-.254-.381-.425-.677-.425zm-7.279 0h-5.778c-.297 0-.566.175-.686.446l-1.661 4.054h8.125z" fill="currentColor" fill-rule="evenodd"/></svg>
