<svg height="24" viewBox="0 0 24 24" width="24" xmlns="http://www.w3.org/2000/svg"><path d="m13.8754919 23c-.718-.014-1.387-.311-1.874-.812-.486.502-1.153.798-1.862.812h-7.51400004c-1.479-.03-2.653-1.247-2.625-2.714v-5.836c-.028-1.456 1.143-2.67 2.61-2.7h2.64v-7.05c-.028-1.456 1.143-2.67 2.61-2.7h7.51500004c.723.014 1.389.304 1.882.817s.757 1.187.743 1.898v7.035h3.375c.723.014 1.389.304 1.882.817s.757 1.187.743 1.898v5.835c.014.699-.25 1.37-.743 1.883s-1.156.803-1.867.817c-.002 0-.005 0-.007 0zm-1.125-2.7c-.012.652.499 1.187 1.14 1.2h7.485c.299-.006.585-.133.801-.356.215-.224.33-.518.324-.829v-5.865c.006-.323-.109-.619-.324-.844-.215-.224-.505-.35-.815-.356h-1.11v4.5c0 .414-.336.75-.75.75h-3.75c-.415 0-.751-.336-.751-.75v-4.5h-2.25zm-10.12100004-7.05c-.635.015-1.141.546-1.129 1.186v5.864c-.012.652.499 1.187 1.14 1.2h7.48500004c.63-.012 1.138-.544 1.125-1.185v-7.065h-2.25000004v4.5c0 .414-.336.75-.75.75h-3.75c-.414 0-.75-.336-.75-.75v-4.5zm16.12100004 3.75v-3.75h-2.25v3.75zm-11.25000004 0v-3.75h-2.25v3.75zm9.00000004-5.25v-7.05c.006-.323-.109-.62-.324-.843-.215-.224-.505-.351-.816-.357h-1.11v4.5c0 .414-.336.75-.75.75h-3.75000004c-.414 0-.75-.336-.75-.75v-4.5h-1.121c-.635.015-1.141.546-1.129 1.186v7.064zm-3.75-4.5v-3.75h-2.25v3.75z" fill="currentColor" fill-rule="evenodd"/></svg>
