<svg height="24" viewBox="0 0 24 24" width="24" xmlns="http://www.w3.org/2000/svg"><path d="m8.25 22.5c-.414 0-.75-.336-.75-.75s.336-.75.75-.75h15c.414 0 .75.336.75.75s-.336.75-.75.75zm-5.25-16.5c-1.654 0-3-1.346-3-3s1.346-3 3-3 3 1.346 3 3-1.346 3-3 3zm0-4.5c-.827 0-1.5.673-1.5 1.5s.673 1.5 1.5 1.5 1.5-.673 1.5-1.5-.673-1.5-1.5-1.5zm0 13.5c-1.654 0-3-1.346-3-3s1.346-3 3-3 3 1.346 3 3-1.346 3-3 3zm0-4.5c-.827 0-1.5.673-1.5 1.5s.673 1.5 1.5 1.5 1.5-.673 1.5-1.5-.673-1.5-1.5-1.5zm0 13.5c-1.654 0-3-1.346-3-3s1.346-3 3-3 3 1.346 3 3-1.346 3-3 3zm0-4.5c-.827 0-1.5.673-1.5 1.5s.673 1.5 1.5 1.5 1.5-.673 1.5-1.5-.673-1.5-1.5-1.5zm5.25-15c-.414 0-.75-.336-.75-.75s.336-.75.75-.75h15c.414 0 .75.336.75.75s-.336.75-.75.75zm0 9c-.414 0-.75-.336-.75-.75s.336-.75.75-.75h15c.414 0 .75.336.75.75s-.336.75-.75.75z" fill="currentColor" fill-rule="evenodd"/></svg>
