<svg height="18" viewBox="0 0 24 18" width="24" xmlns="http://www.w3.org/2000/svg"><path d="m21.75 3c1.241 0 2.25 1.009 2.25 2.25v13.5c0 1.241-1.009 2.25-2.25 2.25h-19.5c-1.241 0-2.25-1.009-2.25-2.25v-13.5c0-1.241 1.009-2.25 2.25-2.25zm.75 6h-21v9.75c0 .414.336.75.75.75h19.5c.414 0 .75-.336.75-.75zm-12 6c.414 0 .75.336.75.75s-.336.75-.75.75h-5.25c-.414 0-.75-.336-.75-.75s.336-.75.75-.75zm3-3c.414 0 .75.336.75.75s-.336.75-.75.75h-8.25c-.414 0-.75-.336-.75-.75s.336-.75.75-.75zm8.25-7.5h-19.5c-.414 0-.75.336-.75.75v2.25h21v-2.25c0-.414-.336-.75-.75-.75z" fill="currentColor" fill-rule="evenodd" transform="translate(0 -3)"/></svg>
