<svg height="24" viewBox="0 0 24 24" width="24" xmlns="http://www.w3.org/2000/svg"><path d="m9.92405075 18c-.11267753 0-.22631812-.0121642-.33899564-.035479-.45456234-.0952863-.84652604-.3699949-1.10366194-.7744551l-2.34985613-3.5093766c-.22920728-.3426254-.15119976-.8180436.1743131-1.0593006.12230808-.0912316.2658034-.1388748.4160401-.1388748.23498561 0 .45552539.1206285.59131626.3223518l2.35948668 3.5245818c.05200502.0821085.1155667.1277243.19357422.1439433.01926111.0040547.03852223.0060821.05778335.0060821.05585723 0 .11075145-.0182463.15794115-.0516979.0269656-.01926.0500789-.0425748.06934-.0689306l7.5619141-10.07095793c.1367539-.18246326.3428478-.28788647.5653137-.28788647.1617934 0 .3206976.05778003.4468579.16320324.1511998.12569691.2475054.3061328.2696556.50785606.0221503.20172326-.0308177.40040547-.1502367.55955398l-7.5532465 10.05879372c-.1088253.151039-.2475054.2878865-.4073726.4014192-.2860276.2027369-.6182818.3091738-.96016665.3091738z" fill="currentColor" fill-rule="evenodd"/></svg>
