<svg height="24" viewBox="0 0 24 24" width="24" xmlns="http://www.w3.org/2000/svg"><path d="m6.5 24c-.827 0-1.5-.673-1.5-1.5v-6c0-2.268 1.444-4.112 2.765-5.323-1.707-2.205-1.669-5.38.139-7.534.029-.035.061-.066.096-.095v-2.798c0-.414.336-.75.75-.75s.75.336.75.75v3.355c.823.74 1.881 1.145 2.995 1.145 1.123 0 2.181-.406 3.005-1.145v-3.355c0-.414.336-.75.75-.75s.75.336.75.75v2.798c.034.028.066.06.095.094 1.809 2.154 1.847 5.328.14 7.534 1.321 1.21 2.765 3.052 2.765 5.324v6c0 .827-.673 1.5-1.5 1.5zm2.597-12c-.857.734-2.597 2.473-2.597 4.5v6h12v-6c0-2.031-1.74-3.768-2.597-4.5zm6.757-1.5c1.285-1.436 1.502-3.542.567-5.207-1.086.943-2.46 1.457-3.916 1.457-1.465 0-2.839-.514-3.926-1.457-.935 1.665-.718 3.771.567 5.207z" fill="currentColor" fill-rule="evenodd"/></svg>
