<svg height="24" viewBox="0 0 24 24" width="24" xmlns="http://www.w3.org/2000/svg"><g fill="none" fill-rule="evenodd"><circle cx="11.705263" cy="11.705263" fill="currentColor" r="6.705263"/><path d="m15.5368417 11.0966373c-.0683455-.3251491-.1809643-.6481426-.3410016-.9613157-.8640561-1.6906558-2.8924047-2.50454663-4.7022896-1.88826028-2.21112736.75269337-3.25058341 3.24238978-2.21983687 5.32166768.85038706 1.7150869 2.89216277 2.5517322 4.71789427 1.9334099 1.1074385-.3750892 1.9216569-1.185507 2.3302782-2.1620323l-.097861-.0401196c-.7267604-.2980834-1.5450916-.1637124-2.1759264.3016761-.1977785.1457482-.4251935.2614367-.6783742.3374844-.96978.290778-2.0368161-.1377243-2.52648424-1.0160462-.63930239-1.1471837-.1183042-2.5542471 1.06909254-3.04119244.7894205-.32371203 1.6595249-.15185599 2.2630215.36826284l-1.4647705.6007176c-.4320886.1771254-.637246.6675437-.4583381 1.0952077.1790289.4279035.6743824.6310169 1.10635.4537717l1.5619058-.640478z" fill="#fff"/></g></svg>
