<svg height="24" viewBox="0 0 24 24" width="24" xmlns="http://www.w3.org/2000/svg"><path d="m3.25 20.5c-1.241 0-2.25-1.009-2.25-2.25v-12c0-.504.164-.981.476-1.38.007-.011.015-.022.022-.031.006-.008.015-.018.023-.027.425-.514 1.056-.812 1.729-.812h18c.671 0 1.301.297 1.731.814.01.01.019.021.026.031.006.007.012.017.018.026.311.399.475.875.475 1.379v12c0 1.241-1.009 2.25-2.25 2.25zm-.75-2.25c0 .414.336.75.75.75h18c.414 0 .75-.336.75-.75v-11.688l-7.276 5.596c-.704.542-1.583.841-2.474.841s-1.77-.299-2.474-.841l-7.276-5.596zm8.19-7.281c.444.342.998.53 1.56.53s1.115-.188 1.559-.53l7.111-5.47h-17.341z" fill="currentColor" fill-rule="evenodd"/></svg>
