<svg height="24" viewBox="0 0 24 24" width="24" xmlns="http://www.w3.org/2000/svg"><path d="m6 16.48c1.8 0 3.324 1.268 3.675 3h3.075c2.068 0 3.75 1.682 3.75 3.75 0 .414-.336.75-.75.75h-15c-.414 0-.75-.336-.75-.75v-6c0-.414.336-.75.75-.75zm0 1.5h-4.5v4.5h13.371c-.313-.879-1.159-1.5-2.121-1.5h-6.75c-.414 0-.75-.336-.75-.75s.336-.75.75-.75h2.118c-.313-.879-1.158-1.5-2.118-1.5zm5.144-17.981c.695 0 1.428.395 2.242 1.209.021.02.041.043.06.068.62.79 1.141 1.648 1.555 2.56.414-.911.934-1.77 1.554-2.56.021-.026.039-.047.059-.066.815-.815 1.549-1.21 2.244-1.21.525 0 1.02.228 1.472.677.454.45.675.93.676 1.466.001.699-.395 1.434-1.209 2.248-.022.022-.044.041-.066.059-.357.28-.731.541-1.118.782h3.887c.827 0 1.5.673 1.5 1.5v2.25c0 .827-.673 1.5-1.5 1.5v6c0 .827-.673 1.5-1.5 1.5h-9.75v-.002c-.414 0-.75-.336-.75-.75s.336-.75.75-.75h3v-6h-5.25v3.75c0 .414-.336.75-.75.75s-.75-.336-.75-.75v-3.75c-.827 0-1.5-.673-1.5-1.5v-2.25c0-.827.673-1.5 1.5-1.5h3.888c-.387-.24-.761-.501-1.117-.781-.024-.019-.047-.04-.069-.062-.812-.811-1.207-1.546-1.206-2.245.001-.528.228-1.021.676-1.466.452-.449.948-.677 1.472-.677zm9.856 10.481h-5.25v6h5.25zm1.5-3.75h-6.75v2.25h6.75zm-8.25 0h-6.75v2.25h6.75zm4.616-5.225c-.157.001-.515.096-1.16.732-.609.784-1.107 1.637-1.485 2.545.908-.378 1.761-.876 2.545-1.485.666-.674.738-1.031.738-1.153 0-.08-.027-.199-.233-.404-.147-.146-.248-.235-.405-.235zm-7.732.001c-.157 0-.258.089-.405.235-.206.205-.2330101.323-.2330101.404-.0009899.122.0710101.478.7370101 1.152.784.609 1.637 1.107 2.546 1.485-.378-.908-.875-1.762-1.485-2.545-.644-.636-1.003-.731-1.16-.731z" fill="currentColor" fill-rule="evenodd"/></svg>
