<svg height="24" viewBox="0 0 24 24" width="24" xmlns="http://www.w3.org/2000/svg"><path d="m12 0c6.617 0 12 5.383 12 12s-5.383 12-12 12-12-5.383-12-12 5.383-12 12-12zm0 1.5c-5.79 0-10.5 4.71-10.5 10.5s4.71 10.5 10.5 10.5 10.5-4.71 10.5-10.5-4.71-10.5-10.5-10.5zm6.047 12.75c.115 0 .229.027.333.078.179.089.313.242.378.432.064.19.05.393-.039.573-1.274 2.573-3.854 4.17-6.733 4.17-1.159 0-2.276-.262-3.319-.779-1.462-.724-2.666-1.929-3.391-3.391-.089-.179-.103-.383-.039-.573s.198-.344.378-.432c.103-.051.218-.078.333-.078.287 0 .545.16.672.417.58 1.17 1.543 2.134 2.713 2.713.7422222.3671111 1.5294815.5738272 2.3456241.6152318l.3073759.0077682c2.304 0 4.369-1.279 5.389-3.336.127-.257.385-.417.672-.417zm-9.797-6.375c.62132034 0 1.125.50367966 1.125 1.125s-.50367966 1.125-1.125 1.125-1.125-.50367966-1.125-1.125.50367966-1.125 1.125-1.125zm7.5 0c.6213203 0 1.125.50367966 1.125 1.125s-.5036797 1.125-1.125 1.125-1.125-.50367966-1.125-1.125.5036797-1.125 1.125-1.125z" fill="currentColor" fill-rule="evenodd"/></svg>
