<svg height="24" viewBox="0 0 24 24" width="24" xmlns="http://www.w3.org/2000/svg"><path d="m12 0c6.617 0 12 5.383 12 12s-5.383 12-12 12-12-5.383-12-12 5.383-12 12-12zm0 1.5c-5.79 0-10.5 4.71-10.5 10.5s4.71 10.5 10.5 10.5 10.5-4.71 10.5-10.5-4.71-10.5-10.5-10.5zm0 15c.6213203 0 1.125.5036797 1.125 1.125s-.5036797 1.125-1.125 1.125-1.125-.5036797-1.125-1.125.5036797-1.125 1.125-1.125zm0-11.249c2.068 0 3.75 1.683 3.75 3.75 0 1.586-1.005 3.006-2.5 3.535-.299.106-.5.39-.5.707v1.007c0 .414-.336.75-.75.75s-.75-.336-.75-.75v-1.006c-.001-.952.602-1.805 1.5-2.122.897-.317 1.5-1.17 1.5-2.121 0-.601-.234-1.166-.659-1.591-.424-.425-.989-.659-1.591-.659-.601 0-1.166.234-1.591.659-.425.424-.659.989-.659 1.59 0 .413-.336.75-.75.75s-.75-.337-.75-.75c0-1.002.391-1.943 1.099-2.651s1.65-1.098 2.651-1.098z" fill="currentColor" fill-rule="evenodd"/></svg>
