<svg height="24" viewBox="0 0 24 24" width="24" xmlns="http://www.w3.org/2000/svg"><path d="m12.774 0c2.102 0 4.157.587 5.942 1.697 2.552 1.587 4.333 4.073 5.015 7s.183 5.944-1.404 8.495c-1.587 2.552-4.073 4.333-6.999 5.015-.7058333.165-1.4248611.2619444-2.1431944.2896759l-.4308056.0083241c-1.944 0-3.864-.514-5.565-1.489l-6.112 2.912c-.101.047-.212.072-.322.072-.201 0-.389-.078-.531-.22-.224-.224-.283-.566-.147-.852l2.911-6.113c-.974-1.702-1.486-3.632-1.484-5.596.009-6.186 5.049-11.219 11.235-11.219zm0 1.5h-.035c-5.36 0-9.727 4.361-9.735 9.721-.003 1.825.506 3.609 1.47 5.158.136.219.151.487.04.719l-2.174 4.566 4.566-2.175c.099-.048.211-.073.322-.073.14 0 .278.039.397.114 1.551.965 3.325 1.474 5.13 1.474.746 0 1.497-.087 2.232-.258 2.536-.591 4.69-2.135 6.066-4.346 1.375-2.212 1.807-4.827 1.216-7.363s-2.135-4.691-4.346-6.066c-1.546-.962-3.327-1.471-5.149-1.471zm-.019 12c.6213203 0 1.125.5036797 1.125 1.125s-.5036797 1.125-1.125 1.125-1.125-.5036797-1.125-1.125.5036797-1.125 1.125-1.125zm0-7.5c.414 0 .75.336.75.75v4.5c0 .414-.337.75-.75.75-.414 0-.75-.336-.75-.75v-4.5c0-.414.336-.75.75-.75z" fill="currentColor" fill-rule="evenodd"/></svg>
