<svg height="24" viewBox="0 0 24 24" width="24" xmlns="http://www.w3.org/2000/svg"><path d="m20 1c1.6568542 0 3 1.34314575 3 3v16c0 1.6568542-1.3431458 3-3 3h-16c-1.65685425 0-3-1.3431458-3-3v-16c0-1.65685425 1.34314575-3 3-3zm0 1.5h-16c-.77969612 0-1.42044868.59488808-1.49313342 1.35553999l-.00686658.14446001v16c0 .7796961.59488808 1.4204487 1.35553999 1.4931334l.14446001.0068666h16c.7796961 0 1.4204487-.5948881 1.4931334-1.35554l.0068666-.14446v-16c0-.77969612-.5948881-1.42044868-1.35554-1.49313342zm-5.9146305 12.0761719-.0058594 1.2949219-.0100911.2246093c-.0134549.1510417-.0403646.3046875-.0807292.4609375-.0605469.234375-.1435547.4609375-.2490234.6796875-.1054688.21875-.2314453.4257813-.3779297.6210938s-.303711.3691406-.4716797.5214843l-.8613281-.4453124.107666-.2124024.1003418-.215332c.0644531-.1445313.1201172-.296875.1669922-.4570313.046875-.1601562.0839843-.3300781.1113281-.5097656.0273437-.1796875.0410156-.3769531.0410156-.5917969v-1.3710937zm-5.48771325-7.23046878c.4296875 0 .81640625.07226563 1.16015625.21679688s.6357422.35839844.8759766.64160156c.2402343.28320313.4248046.63476563.5537109 1.0546875.1289062.41992188.1933594.90527344.1933594 1.45605474v2.0390624l-.0052897.2699382c-.0176324.4408095-.0793457.8361816-.18514 1.1861165-.1269531.4199219-.3095703.7714844-.5478516 1.0546875-.2382812.2832032-.5292969.4970704-.87304685.6416016-.34375.1445312-.73046875.2167969-1.16015625.2167969-.42578125 0-.81054688-.0722657-1.15429688-.2167969s-.63574218-.3583984-.87597656-.6416016c-.24023437-.2832031-.42578125-.6347656-.55664062-1.0546875-.13085938-.4199218-.19628907-.9052734-.19628907-1.4560547v-2.0390624l.0053711-.2699382c.01790364-.4408095.0805664-.83618164.18798828-1.18611654.12890625-.41992187.31347656-.77148437.55371094-1.0546875.24023437-.28320312.53125-.49707031.87304687-.64160156.34179688-.14453125.72558594-.21679688 1.15136719-.21679688zm1.14257812 4.11914068-2.2734375 1.6875.01126099.2041168c.03546143.4603576.13522339.8093109.29928589 1.0468597.1875.2714844.46484375.4072266.83203125.4072266.3828125 0 .66699219-.1484375.85253906-.4453125.18554688-.296875.27832031-.7519532.27832031-1.3652344zm8.83167613.1113281v1.3183593h-3.880859v-1.3183593zm-9.97425425-2.9121094c-.37890625 0-.66210938.14648438-.84960938.43945312-.1875.29296876-.28125.74414063-.28125 1.35351558v1.59375l2.2734375-1.6933593-.0085144-.208374c-.02947998-.46997075-.12625122-.82629399-.29031372-1.06896978-.1875-.27734374-.46875-.41601562-.84375-.41601562z" fill="currentColor" fill-rule="evenodd"/></svg>
