<svg height="24" viewBox="0 0 22 24" width="22" xmlns="http://www.w3.org/2000/svg"><path d="m3.75 24c-1.241 0-2.25-1.009-2.25-2.25v-19.5c0-1.241 1.009-2.25 2.25-2.25h10.629c.601 0 1.165.234 1.59.658l5.872 5.872c.425.425.659.99.659 1.59v13.63c0 1.241-1.009 2.25-2.25 2.25zm0-22.5c-.414 0-.75.336-.75.75v19.5c0 .414.336.75.75.75h16.5c.414 0 .75-.336.75-.75v-12.75h-5.25c-1.241 0-2.25-1.009-2.25-2.25v-5.25zm11.25 5.25c0 .414.336.75.75.75h4.939l-5.689-5.689zm-6.56054688 11.3671875c.421875 0 .81542969-.0556641 1.18066407-.1669922.36523437-.1113281.68066401-.2734375.94628901-.4863281s.4746094-.475586.6269532-.788086c.1523437-.3125.2285156-.6679687.2285156-1.0664062 0-.2265625-.0273438-.4414062-.0820312-.6445312-.0546876-.203125-.1386719-.3896485-.2519532-.5595704-.1132812-.1699218-.2568359-.321289-.430664-.4541015-.1738282-.1328125-.3798828-.2421875-.6181641-.328125.203125-.0976563.3828125-.2138672.5390625-.3486328.15625-.1347657.2871094-.2822266.3925781-.4423829.1054688-.1601562.1855469-.3291015.2402344-.5068359s.0820313-.3583984.0820313-.5419922c0-.3984375-.069336-.7490234-.2080079-1.0517578-.1386718-.3027344-.3330078-.5566406-.5830078-.76171874-.25-.20507812-.55078122-.359375-.90234372-.46289062-.3515625-.10351563-.73828126-.15527344-1.16015626-.15527344-.390625 0-.75488281.05664062-1.09277343.16992188-.33789063.11328124-.63183594.27246093-.88183594.47753906-.25.20507816-.44628906.45019536-.58886719.73535156-.14257812.2851562-.21386719.6015625-.21386719.9492188h1.62890625c0-.15625.03125-.296875.09375-.421875s.14746094-.2314454.25488282-.319336c.10742187-.0878906.23242187-.1552734.375-.2021484.14257812-.046875.29589844-.0703125.45996094-.0703125.19921874 0 .37402343.0273437.52441406.0820312.15039062.0546875.27441406.131836.37207031.2314453.09765625.0996094.17089844.21875.21972656.3574219.04882813.1386719.07324219.2919922.07324219.4599609 0 .3632813-.10742188.6572266-.32226562.881836-.21484376.2246094-.54492188.336914-.99023438.336914h-.88476563v1.265625h.88476563c.22265625 0 .42285156.0253907.60058594.0761719.17773437.0507813.33007812.1289063.45703125.234375.12695312.1054688.22363281.2402344.29003906.4042969s.09960937.3613281.09960937.5917969c0 .375-.1171875.671875-.3515625.890625s-.55859374.328125-.97265624.328125c-.1875 0-.359375-.0283203-.51562501-.084961-.15625-.0566406-.29199218-.1347656-.40722656-.234375-.11523437-.0996093-.20410156-.21875-.26660156-.3574218-.0625-.1386719-.09375-.2900391-.09375-.4541016h-1.62890625c0 .4140625.08105469.7734375.24316406 1.078125.16210938.3046875.37792969.5576172.64746094.7587891.26953125.2011718.57714844.3515625.92285156.4511718.34570313.0996094.70019532.1494141 1.06347656.1494141zm6.98927578.0058594c.4296875 0 .8164062-.0722657 1.1601562-.2167969s.6347657-.3583984.8730469-.6416016c.2382813-.2832031.4208984-.6347656.5478516-1.0546875.1269531-.4199218.1904297-.9052734.1904297-1.4560547v-2.0390624c0-.5507813-.0644532-1.0361329-.1933594-1.4560547-.1289063-.4199219-.3134766-.7714844-.553711-1.0546875-.2402343-.28320316-.5322265-.49707035-.8759765-.6416016s-.7304688-.21679688-1.1601563-.21679688c-.4257812 0-.8095703.07226563-1.1513672.21679688-.3417968.14453125-.6328125.35839844-.8730468.6416016-.2402344.2832031-.4248047.6347656-.553711 1.0546875-.1289062.4199218-.1933593.9052734-.1933593 1.4560547v2.0390624c0 .5507813.0654296 1.0361329.196289 1.4560547.1308594.4199219.3164063.7714844.5566406 1.0546875.2402344.2832032.5322266.4970704.8759766.6416016s.7285156.2167969 1.1542969.2167969zm-1.1425781-4.0722657v-1.59375c0-.609375.09375-1.0605468.28125-1.3535156.1875-.2929687.4707031-.4394531.8496093-.4394531.375 0 .65625.1386719.84375.4160156.1875.2773438.2871094.703125.2988282 1.2773438zm1.1425781 2.7597657c-.3671875 0-.6445313-.1357422-.8320313-.4072266s-.2910156-.6884765-.3105468-1.2509765l2.2734375-1.6875v1.5351562c0 .6132812-.0927735 1.0683594-.2783204 1.3652344-.1855468.296875-.4697265.4453125-.852539.4453125z" fill="currentColor" fill-rule="evenodd" transform="translate(-1)"/></svg>
