<svg height="24" viewBox="0 0 24 24" width="24" xmlns="http://www.w3.org/2000/svg"><path d="m14.379 0c.601 0 1.165.234 1.59.658l5.872 5.872c.425.425.659.99.659 1.59v13.63c0 1.241-1.009 2.25-2.25 2.25h-16.5c-1.241 0-2.25-1.009-2.25-2.25v-19.5c0-1.241 1.009-2.25 2.25-2.25zm-.879 1.5h-9.75c-.414 0-.75.336-.75.75v19.5c0 .414.336.75.75.75h16.5c.414 0 .75-.336.75-.75v-12.75h-5.25c-1.241 0-2.25-1.009-2.25-2.25zm-3.68359375 7.96875v8.53125h-1.64648438v-6.5449219l-2.15625.7734375v-1.4179687l3.71484375-1.3417969zm6.98693185 0v5.3613281h.9902343v1.3183594h-.9902343v1.8515625h-1.6289063v-1.8515625h-3.5449219l-.0644531-1.0195313 3.5859375-5.6601562zm-1.6289063 2.1914062-.1582031.28125-1.8515625 2.8886719h2.0097656zm-.1744318-9.8491562v4.939c0 .414.336.75.75.75h4.939z" fill="currentColor" fill-rule="evenodd"/></svg>
