<svg height="24" viewBox="0 0 24 24" width="24" xmlns="http://www.w3.org/2000/svg"><path d="m12 .011c2.1278742 0 3.9107968 1.47691393 4.3795923 3.46156654l.0437686.20708034.0126391.08135312h3.064c1.1367338 0 2.076582.84296748 2.2285265 1.93788437l.0162827.15806682.0051908.15404881v15.75c0 1.190864-.9251616 2.1656449-2.0959512 2.2448092l-.1540488.0051908h-15c-1.19086399 0-2.16564492-.9251616-2.24480919-2.0959512l-.00519081-.1540488v-15.75c0-1.19086399.92516159-2.16564492 2.09595119-2.24480919l.15404881-.00519081h3.063l.0136391-.08135312c.36441811-1.9510805 1.98784734-3.45900557 3.9950402-3.64852773l.216485-.01522116zm0 1.5c-1.6568542 0-3 1.34314575-3 3 0 .37969577-.28215388.69349096-.64822944.74315338l-.10177056.00684662h-3.75c-.37969577 0-.69349096.28215388-.74315338.64822944l-.00684662.10177056v15.75c0 .3796958.28215388.693491.64822944.7431534l.10177056.0068466h15c.3796958 0 .693491-.2821539.7431534-.6482294l.0068466-.1017706v-15.75c0-.37969577-.2821539-.69349096-.6482294-.74315338l-.1017706-.00684662h-3.75c-.4142136 0-.75-.33578644-.75-.75 0-1.65685425-1.3431458-3-3-3zm-3.75 16.125.12258114.0066013c.52339664.0567161.9391015.4724209.99581751.9958176l.00660135.1225811c0 .6213203-.50367966 1.125-1.125 1.125s-1.125-.5036797-1.125-1.125.50367966-1.125 1.125-1.125zm8.25.375c.4142136 0 .75.3357864.75.75 0 .3796958-.2821539.693491-.6482294.7431534l-.1017706.0068466h-5.25c-.4142136 0-.75-.3357864-.75-.75 0-.3796958.2821539-.693491.6482294-.7431534l.1017706-.0068466zm-8.25-4.875.12258114.0066013c.52339664.0567161.9391015.4724209.99581751.9958176l.00660135.1225811c0 .6213203-.50367966 1.125-1.125 1.125s-1.125-.5036797-1.125-1.125.50367966-1.125 1.125-1.125zm8.25.375c.4142136 0 .75.3357864.75.75 0 .3796958-.2821539.693491-.6482294.7431534l-.1017706.0068466h-5.25c-.4142136 0-.75-.3357864-.75-.75 0-.3796958.2821539-.693491.6482294-.7431534l.1017706-.0068466zm-8.25-4.875.12258114.00660135c.56365791.06107879 1.00241886.53849966 1.00241886 1.11839865 0 .6213203-.50367966 1.125-1.125 1.125s-1.125-.5036797-1.125-1.125c0-.57989899.43876095-1.05731986 1.00241886-1.11839865zm8.25.375c.4142136 0 .75.33578644.75.75 0 .3796958-.2821539.693491-.6482294.7431534l-.1017706.0068466h-5.25c-.4142136 0-.75-.3357864-.75-.75 0-.37969577.2821539-.69349096.6482294-.74315338l.1017706-.00684662zm-4.5-6 .1225811.00660135c.563658.06107879 1.0024189.53849966 1.0024189 1.11839865 0 .62132034-.5036797 1.125-1.125 1.125s-1.125-.50367966-1.125-1.125c0-.57989899.4387609-1.05731986 1.0024189-1.11839865z" fill="currentColor" fill-rule="evenodd"/></svg>
