<svg height="24" viewBox="0 0 24 24" width="24" xmlns="http://www.w3.org/2000/svg"><path d="m14.3883168 2c1.228.06 2.167 1.085 2.113 2.284l.001 3.466c0 .414-.336.75-.75.75s-.75-.336-.75-.75v-3.5c.018-.403-.275-.732-.652-.751l-12.23500004.001c-.341.018-.631.346-.614.716l.001 16.034c-.018.403.275.732.651.751l12.23500004-.001c.341-.018.632-.346.615-.716l-.001-3.534c0-.414.336-.75.75-.75s.75.336.75.75v3.5c.054 1.173-.878 2.189-2.077 2.249l-12.31000004.001h-.019c-1.208-.061-2.148-1.085-2.093-2.284l-.001-15.966c-.055-1.172.876-2.189 2.076-2.249zm5.113 5.753c.2 0 .389.078.53.22l3.75 3.75c.035.035.066.073.094.114.007.01.015.025.022.038.017.028.032.057.045.087.007.016.016.045.021.061.008.02.017.051.023.084.009.043.015.094.015.146 0 .05-.005.1-.015.148-.006.03-.015.059-.025.088-.004.016-.012.038-.021.058-.009.023-.025.053-.043.083-.001.003-.01.021-.021.037-.022.032-.042.057-.064.081-.0006667.002-.0071112.0102222-.0160741.0199259l-3.7649259 3.7650741c-.141.143-.329.221-.529.221s-.389-.078-.53-.22c-.292-.292-.292-.768 0-1.061l2.47-2.47h-13.94000004c-.414 0-.75-.336-.75-.75s.336-.75.75-.75h13.93900004l-2.47-2.47c-.142-.141-.22-.33-.22-.53s.078-.389.22-.53.33-.22.53-.22z" fill="currentColor" fill-rule="evenodd"/></svg>
