<svg height="24" viewBox="0 0 24 24" width="24" xmlns="http://www.w3.org/2000/svg"><path d="m17 5.25c.9664983 0 1.75.78350169 1.75 1.75v6c0 .9664983-.7835017 1.75-1.75 1.75h-2.25v2.25c0 .9181734-.7071103 1.6711923-1.6064728 1.7441988l-.1435272.0058012h-6c-.9181734 0-1.67119234-.7071103-1.7441988-1.6064728l-.0058012-.1435272v-6c0-.9181734.70711027-1.67119234 1.60647279-1.7441988l.14352721-.0058012h2.25v-2.25c0-.9181734.70711027-1.67119234 1.6064728-1.7441988l.1435272-.0058012zm-7.75 5.5h-2.25c-.11834673 0-.21748682.0822334-.24339732.1926773l-.00660268.0573227v6c0 .1183467.08223341.2174868.19267729.2433973l.05732271.0066027h6c.1183467 0 .2174868-.0822334.2433973-.1926773l.0066027-.0573227v-2.25h-2.25c-.9181734 0-1.67119234-.7071103-1.7441988-1.6064728l-.0058012-.1435272zm7.75-4h-6c-.1380712 0-.25.11192881-.25.25v6c0 .1380712.1119288.25.25.25h6c.1380712 0 .25-.1119288.25-.25v-6c0-.13807119-.1119288-.25-.25-.25z" fill="currentColor" fill-rule="evenodd"/></svg>
