<svg height="24" viewBox="0 0 24 24" width="24" xmlns="http://www.w3.org/2000/svg"><path d="m21.75 0c1.241 0 2.25 1.009 2.25 2.25v11.379c0 .317-.066.625-.196.916-.002.005-.009.018-.011.023-.109.239-.262.461-.451.65l-8.123 8.122c-.19.19-.411.343-.659.456l-.032.014c-.274.124-.582.19-.899.19h-11.379c-1.241 0-2.25-1.009-2.25-2.25v-19.5c0-1.241 1.009-2.25 2.25-2.25zm0 1.5h-19.5c-.414 0-.75.336-.75.75v19.5c0 .414.336.75.75.75h11.25v-6.75c0-1.241 1.009-2.25 2.25-2.25h6.75v-11.25c0-.414-.336-.75-.75-.75zm-.311 13.5h-5.689c-.414 0-.75.336-.75.75v5.689zm-9.439-4.5c.414 0 .75.336.75.75s-.336.75-.75.75h-5.25c-.414 0-.75-.336-.75-.75s.336-.75.75-.75zm6.75-4.5c.414 0 .75.336.75.75s-.336.75-.75.75h-12c-.414 0-.75-.336-.75-.75s.336-.75.75-.75z" fill="currentColor" fill-rule="evenodd"/></svg>
