<svg height="24" viewBox="0 0 24 24" width="24" xmlns="http://www.w3.org/2000/svg"><path d="m15.75 12c.96 0 1.808.615 2.121 1.5h2.379c2.068 0 3.75 1.682 3.75 3.75v4.5c0 .414-.336.75-.75.75h-2.379c-.313.885-1.161 1.5-2.121 1.5s-1.808-.615-2.121-1.5h-3.257c-.314.885-1.162 1.5-2.122 1.5s-1.808-.615-2.121-1.5h-.879c-1.241 0-2.25-1.009-2.25-2.25v-6c0-1.241 1.009-2.25 2.25-2.25zm3 9c-.414 0-.75.336-.75.75s.336.75.75.75.75-.336.75-.75-.336-.75-.75-.75zm-7.5 0c-.414 0-.75.336-.75.75s.336.75.75.75.75-.336.75-.75-.336-.75-.75-.75zm9-6h-2.25v4.629c.239-.085.491-.129.75-.129.96 0 1.808.615 2.121 1.5h1.629v-3.75c0-1.241-1.009-2.25-2.25-2.25zm-4.5-1.5h-7.5c-.414 0-.75.336-.75.75v6c0 .414.336.75.75.75h.879c.314-.885 1.162-1.5 2.121-1.5.96 0 1.808.615 2.121 1.5h3.129v-6.75c0-.414-.336-.75-.75-.75zm-1.55-13.5c.753.002 1.452.376 1.869 1.002l2.781 4.168c.42.425.65.984.65 1.58v3c0 .414-.336.75-.75.75s-.75-.336-.75-.75v-3c0-.414-.336-.75-.75-.75h-15c-.414 0-.75.336-.75.75v10.5c0 .414.336.75.75.75h1.5c.414 0 .75.336.75.75s-.336.75-.75.75h-1.5c-1.241 0-2.25-1.009-2.25-2.25v-10.5c0-.596.231-1.156.651-1.58l2.777-4.168c.418-.627 1.118-1.002 1.872-1.002zm-.002 1.5h-3.698v3h6.099l-1.778-2.666c-.139-.209-.372-.334-.623-.334zm-5.198 0h-3.7c-.251 0-.485.125-.624.334l-1.777 2.666h6.101z" fill="currentColor" fill-rule="evenodd"/></svg>
