<svg height="24" viewBox="0 0 24 24" width="24" xmlns="http://www.w3.org/2000/svg"><path d="m12.375 0c1.190864 0 2.1656449.92516159 2.2448092 2.09595119l.0051908.15404881v5.617l.0188929.01326956c.5218391.36917278 1.4910332 1.03989074 1.9249064 1.35237682l.0989042.07186189c1.5791669 1.16100723 2.5757314 2.14667283 3.0009577 3.19498133.1078621.2659119.1752017.532888.197823.8000847l.0085158.2004257v5.022l2.8740377 4.3119749c.2088767.313315.1508982.7266345-.1203076.9718195l-.087705.0682433c-.313315.2088767-.7266345.1508982-.9718195-.1203076l-.0682433-.087705-3-4.5c-.0616003-.0924004-.101654-.1969257-.1178308-.3058798l-.0081315-.1101453v-5.25c0-.1307241-.0310314-.2756823-.0963385-.4366835-.2694865-.6643639-1.0318766-1.4432802-2.24982-2.3641945l-.2496517-.1860843c-.2032965-.1494641-.6786533-.4815925-1.1537537-.813661l-.0004361 3.1866233 1.6490689 1.3227869c.3232042.2590595.3752038.7310777.1161442 1.054282-.2355087.293822-.6470162.363508-.9627175.1791146l-.0915645-.0629704-1.8792652-1.5066282c-.0402786-.0271179-.0777824-.0580412-.111996-.0922548l-1.718-1.38c-.1397515-.1397516-.3434439-.1943308-.534348-.1431781-.1909042.0511526-.3400173.2002657-.3911699.3911699-.0426272.1590868-.0118295.3270542.0983918.4785061l.0757116.088686 3.534 3.987c.0972808.1097505.1597088.2449644.1807889.3885214l.0079557.1089646v2.5c0 .162396.0749107.4145084.2235878.7208127.1232392.2538972.289561.5310289.4879987.8197458.1716675.2497675.3569456.4933966.5421685.7196644l.207808.246148c.0120095.013642.022549.0254558.0315111.0353582.2779488.3071112.254308.7813961-.0528032 1.059345-.3071112.2779488-.7813961.254308-1.059345-.0528032l-.149148-.1712456c-.0414159-.0488572-.0879322-.1046117-.1387204-.1666544-.2101677-.2567401-.4202802-.533025-.617644-.8201794-.1258563-.1831146-.2421377-.3643361-.3473576-.5430407-.3361516.2550863-.7462228.4154872-1.1892531.4470951l-.1618028.0057541h-9c-1.19086399 0-2.16564492-.9251616-2.24480919-2.0959512l-.00519081-.1540488v-18c0-1.19086399.92516159-2.16564492 2.09595119-2.24480919l.15404881-.00519081zm0 1.5h-9c-.37969577 0-.69349096.28215388-.74315338.64822944l-.00684662.10177056v18c0 .3796958.28215388.693491.64822944.7431534l.10177056.0068466h9c.3460448 0 .6421883-.2355438.7263396-.5623609l.0061875-.037482c-.0004642-.0049539-.0009116-.0099043-.0013423-.014851l-.0081848-.1853061v-2.215l-3.31433009-3.7416699c-.47878978-.4787898-.68822471-1.1597902-.56828761-1.8190141l.03688092-.1642227c.18985333-.7085423.74328783-1.2619768 1.45183008-1.4518301.654039-.1752492 1.3485201-.016125 1.8112726.3741886l.110703.1023351.4989311.3992131v-9.434c0-.37969577-.2821539-.69349096-.6482294-.74315338zm-1.125 16.5.1225811.0066013c.563658.0610788 1.0024189.5384997 1.0024189 1.1183987 0 .6213203-.5036797 1.125-1.125 1.125s-1.125-.5036797-1.125-1.125c0-.579899.4387609-1.0573199 1.0024189-1.1183987zm-.5759836-9.25000064c.2761427.30873624.2497205.78287433-.0590158 1.05901706-.3087362.27614268-.78287429.24972048-1.05901702-.05901578-.68902862-.77035563-1.81426245-.97221989-2.72810499-.48941552s-1.38123454 1.52609008-1.13318175 2.52942358c.23427207.9475927 1.04979135 1.6293497 2.01035807 1.7033176l.17092867.0066743c.41421321.0005433.74955899.3367698.74901578.750983-.00054322.4142132-.33676974.749559-.75098294.7490164-1.72256786-.0022597-3.2220566-1.1777648-3.63547791-2.8499873-.41342131-1.6722224.36556536-3.41103194 1.88863625-4.21570589 1.5230709-.80467395 3.39846062-.46823351 4.54684164.81569255zm-6.1740164-6.49999936.12258114.00660135c.56365791.06107879 1.00241886.53849966 1.00241886 1.11839865 0 .62132034-.50367966 1.125-1.125 1.125s-1.125-.50367966-1.125-1.125c0-.57989899.43876095-1.05731986 1.00241886-1.11839865z" fill="currentColor" fill-rule="evenodd"/></svg>
