<svg height="24" viewBox="0 0 24 24" width="24" xmlns="http://www.w3.org/2000/svg"><path d="m10.5 3.75c.414 0 .75.336.75.75v8.25h8.25c.414 0 .75.336.75.75 0 5.376-4.374 9.75-9.75 9.75s-9.75-4.374-9.75-9.75 4.374-9.75 9.75-9.75zm-.75 1.534c-4.236.379-7.5 3.916-7.5 8.216 0 4.549 3.701 8.25 8.25 8.25 4.3 0 7.837-3.264 8.216-7.5h-8.216c-.414 0-.75-.336-.75-.75zm3.75-4.534c5.376 0 9.75 4.374 9.75 9.75 0 .414-.336.75-.75.75h-9c-.414 0-.75-.336-.75-.75v-9c0-.414.336-.75.75-.75zm.75 1.534v7.466h7.466c-.359-3.929-3.537-7.107-7.466-7.466z" fill="currentColor" fill-rule="evenodd"/></svg>
