<svg height="24" viewBox="0 0 24 24" width="24" xmlns="http://www.w3.org/2000/svg"><path d="m12 .5c6.3512746 0 11.5 5.14872538 11.5 11.5 0 6.3512746-5.1487254 11.5-11.5 11.5-6.35127462 0-11.5-5.1487254-11.5-11.5 0-6.35127462 5.14872538-11.5 11.5-11.5zm0 1.5c-5.5228475 0-10 4.4771525-10 10s4.4771525 10 10 10 10-4.4771525 10-10-4.4771525-10-10-10zm.25 5c.414 0 .75.337.75.75v3.75h3.75c.414 0 .75.336.75.75s-.336.75-.75.75h-3.75v3.75c0 .414-.336.75-.75.75s-.75-.336-.75-.75v-3.75h-3.75c-.414 0-.75-.336-.75-.75s.336-.75.75-.75h3.75v-3.75c0-.414.336-.75.75-.75z" fill="currentColor" fill-rule="evenodd"/></svg>
