<svg height="24" viewBox="0 0 24 24" width="24" xmlns="http://www.w3.org/2000/svg"><path d="m17.25 0c.414 0 .75.336.75.75v3.75h1.323c.858 0 1.629.476 2.013 1.244l2.585 5.171c.006.012.012.025.017.039.021.049.035.092.045.136.002.007.003.015.004.022.009.052.013.095.013.138v6c0 1.241-1.009 2.25-2.25 2.25h-2.985l.72 3.603c.044.221-.012.448-.155.623-.143.174-.354.274-.58.274h-13.5c-.226 0-.437-.1-.58-.274-.143-.175-.2-.402-.155-.623l.72-3.603h-2.985c-1.241 0-2.25-1.009-2.25-2.25v-6c0-.051.005-.102.016-.153.001-.007.003-.014.005-.021.01-.042.024-.084.043-.127.005-.014.012-.028.018-.04l2.582-5.165c.384-.768 1.155-1.244 2.013-1.244h1.323v-3.75c0-.414.336-.75.75-.75zm-.615 16.5h-9.27l-1.2 6h11.67zm-2.385 3c.414 0 .75.336.75.75s-.336.75-.75.75h-4.5c-.414 0-.75-.336-.75-.75s.336-.75.75-.75zm8.25-7.5h-21v5.25c0 .414.336.75.75.75h3.285l.479-2.397c.07-.349.38-.603.736-.603h10.5c.356 0 .666.254.735.603l.48 2.397h3.285c.414 0 .75-.336.75-.75zm-1.875 1.5c.6213203 0 1.125.5036797 1.125 1.125s-.5036797 1.125-1.125 1.125-1.125-.5036797-1.125-1.125.5036797-1.125 1.125-1.125zm-14.625-7.5h-1.323c-.286 0-.543.159-.671.415l-2.043 4.085h20.074l-2.042-4.086c-.129-.255-.386-.414-.672-.414h-1.323v2.25c0 .414-.336.75-.75.75h-10.5c-.414 0-.75-.336-.75-.75zm10.5-4.5h-9v6h9z" fill="currentColor" fill-rule="evenodd"/></svg>
