<svg height="24" viewBox="0 0 24 24" width="24" xmlns="http://www.w3.org/2000/svg"><path d="m21.2494974 0c1.241 0 2.25 1.009 2.25 2.25v4.25c0 .965-.785 1.75-1.75 1.75h-2.75v10.5c0 2.895-2.355 5.25-5.25 5.25h-11.99999996c-.356 0-.666-.254-.735-.603-.06999999-.35.119-.703.448-.839 1.388-.578 2.537-1.264 2.537-3.808v-15c0-2.068 1.682-3.75 3.75-3.75zm-3.621 1.5h-9.87899996c-1.241 0-2.25 1.009-2.25 2.25v15c0 1.604-.402 2.841-1.224 3.75h9.47399996c2.068 0 3.75-1.682 3.75-3.75v-16.5c0-.259.044-.511.129-.75zm-6.129 17.25c.414 0 .75.336.75.75s-.336.75-.75.75h-2.99999996c-.414 0-.75-.336-.75-.75s.336-.75.75-.75zm3-3.75c.414 0 .75.336.75.75s-.336.75-.75.75h-5.99999996c-.414 0-.75-.336-.75-.75s.337-.75.75-.75zm0-3.75c.414 0 .75.336.75.75s-.336.75-.75.75h-5.99999996c-.414 0-.75-.336-.75-.75s.336-.75.75-.75zm0-3.75c.414 0 .75.336.75.75s-.336.75-.75.75h-5.99999996c-.413 0-.75-.336-.75-.75s.337-.75.75-.75zm6.75-6h-1.5c-.414 0-.75.336-.75.75v4.5h2.75c.138 0 .25-.112.25-.25v-4.25c0-.414-.336-.75-.75-.75zm-11.24999996 2.25c.41399996 0 .74999996.336.74999996.75s-.336.75-.74999996.75h-2.25c-.414 0-.75-.336-.75-.75s.337-.75.75-.75z" fill="currentColor" fill-rule="evenodd"/></svg>
