<svg height="24" viewBox="0 0 24 24" width="24" xmlns="http://www.w3.org/2000/svg"><path d="m13.5 1.75c5.7989899 0 10.5 4.70101013 10.5 10.5 0 5.7989899-4.7010101 10.5-10.5 10.5-.4142136 0-.75-.3357864-.75-.75s.3357864-.75.75-.75c4.9705627 0 9-4.0294373 9-9 0-4.97056275-4.0294373-9-9-9-4.58582075 0-8.37057131 3.42978917-8.92900636 7.8641222l1.64867627-1.64745229c.26626657-.26626656.68293025-.29047261.97654174-.07261815l.08411844.07261815c.26626656.26626657.29047261.68293029.07261815.97654179l-.07261815.0841184-2.97786438 2.9799055c-.13708611.1492313-.333853.2427644-.55246571.2427644s-.4153796-.0935331-.55246571-.2427644l-2.97786438-2.9799055c-.29289321-.2928932-.29289321-.76776697 0-1.06066019.26626657-.26626656.68293025-.29047261.97654174-.07261815l.08411844.07261815 1.76806843 1.76863669c.51041141-5.32290083 4.99491547-9.4853066 10.45160148-9.4853066z" fill="currentColor" fill-rule="evenodd"/></svg>
