<svg height="24" viewBox="0 0 24 24" width="24" xmlns="http://www.w3.org/2000/svg"><path d="m12 0c6.617 0 12 5.383 12 12s-5.383 12-12 12-12-5.383-12-12 5.383-12 12-12zm0 1.5c-5.79 0-10.5 4.71-10.5 10.5s4.71 10.5 10.5 10.5 10.5-4.71 10.5-10.5-4.71-10.5-10.5-10.5zm-.014 11.996c2.879 0 5.459 1.598 6.734 4.171.089.179.103.383.039.573s-.198.344-.378.432c-.103.051-.218.078-.333.078-.287 0-.544-.16-.672-.417-1.02-2.058-3.085-3.337-5.389-3.337-.926 0-1.819.21-2.654.623-1.17.58-2.133 1.543-2.713 2.713-.127.258-.385.418-.672.418-.115 0-.23-.027-.333-.078-.179-.088-.313-.242-.377-.432s-.05-.393.039-.573c.724-1.462 1.928-2.667 3.39-3.391 1.044-.517 2.16-.78 3.319-.78zm-3.736-5.621c.62132034 0 1.125.50367966 1.125 1.125s-.50367966 1.125-1.125 1.125-1.125-.50367966-1.125-1.125.50367966-1.125 1.125-1.125zm7.5 0c.6213203 0 1.125.50367966 1.125 1.125s-.5036797 1.125-1.125 1.125-1.125-.50367966-1.125-1.125.5036797-1.125 1.125-1.125z" fill="currentColor" fill-rule="evenodd"/></svg>
