<svg height="24" viewBox="0 0 24 24" width="24" xmlns="http://www.w3.org/2000/svg"><path d="m5.247 21.001c.007 0 .031.001.038.001.195.007.388.097.524.247.68.752 1.612 1.196 2.624 1.247.072.004.141.006.211.006.93 0 1.828-.348 2.527-.979.096-.086.188-.178.274-.274.142-.157.345-.247.557-.247s.415.09.557.248c.679.753 1.612 1.196 2.625 1.247.071.004.141.006.21.006.931 0 1.829-.348 2.529-.979.095-.086.187-.178.274-.274.135-.15.329-.24.531-.246.004 0 .029-.001.033-.001.188 0 .375.077.513.211.892.859 2.062 1.332 3.296 1.332.197 0 .396-.012.592-.036.031-.004.062-.006.092-.006.378 0 .698.283.745.657.025.198-.029.395-.153.553-.123.158-.301.259-.499.283-.26.029-.522.046-.781.046-1.367 0-2.699-.453-3.785-1.281-.953.8-2.156 1.238-3.41 1.238-.087 0-.175-.002-.263-.006-1.143-.058-2.234-.484-3.107-1.207-.946.782-2.135 1.211-3.372 1.211-1.258 0-2.455-.437-3.406-1.236-1.085.828-2.417 1.281-3.786 1.281-.259 0-.52-.016-.777-.048-.199-.024-.376-.125-.499-.283s-.177-.354-.153-.553c.047-.375.366-.658.744-.658.031 0 .061.002.092.006.197.024.396.037.593.037 1.233 0 2.403-.473 3.295-1.333.138-.134.326-.21.515-.21zm14.255-21.001c.414 0 .75.336.75.75v2.25c1.241 0 2.25 1.009 2.25 2.25v11.25c.03.002.059.005.088.009.394.048.748.249.995.565s.356.71.306 1.108l-.264 2.112c-.047.374-.366.657-.744.657-.031 0-.062-.002-.094-.006-.41-.051-.702-.427-.651-.837l.264-2.111h-.586c-.022.003-.043.004-.064.004h-6c-.022 0-.043-.002-.065-.004h-7.37c-.022.002-.043.003-.065.003h-6c-.022 0-.043-.002-.065-.004h-.685c.062.707.227 1.399.488 2.058.152.385-.037.821-.422.973-.087.035-.18.053-.276.053-.31 0-.584-.186-.698-.474-.313-.793-.511-1.626-.588-2.475-.004-.046-.006-.09-.006-.134 0-.828.673-1.501 1.501-1.501v-5.246c0-1.241 1.009-2.25 2.25-2.25h11.251v-3.75c0-1.241 1.009-2.25 2.25-2.25h1.5v-2.25c0-.414.336-.75.75-.75zm1.5 16.496v-11.246c0-.414-.336-.75-.75-.75h-3c-.414 0-.75.336-.75.75v.75h2.25c.414 0 .75.336.75.75s-.336.75-.75.75h-2.25v8.996zm-6 0v-2.246h-6v2.246zm-7.5 0v-2.246h-4.5v2.246zm7.5-3.746v-2.25h-6v2.25zm-7.5 0v-2.25h-3.75c-.414 0-.75.336-.75.75v1.5z" fill="currentColor" fill-rule="evenodd"/></svg>
