<svg height="24" viewBox="0 0 24 24" width="24" xmlns="http://www.w3.org/2000/svg"><path d="m9.75 0c.3796958 0 .693491.28215388.7431534.64822944l.0068466.10177056.0001585 1.53788564c.9686694.09370408 1.9148982.35985928 2.7933585.78789139.372363.18143491.5271409.63037687.345706 1.00273993s-.6303769.52714091-1.00274.34570601c-.9005894-.43881463-1.888413-.66925559-2.886483-.67421372-3.72792206 0-6.75 3.02206869-6.75 6.74999075 0 2.6438776-.2904459 4.8113786-.77828497 6.537028-.07527546.2662744-.1511798.509327-.22623023.7296953l-.0834848.2332767h15.625l-.1577554-.3854284c-.2504647-.6502207-.4375783-1.32415-.5581466-2.012428l-.06433-.4146138c-.0555211-.4104757.2322265-.7882407.6427022-.8437618s.7882407.2322265.8437618.6427022c.1615031 1.1940169.5543038 2.3450799 1.1564091 3.3887412.27149.4705882-.0321923 1.0517159-.5501092 1.1184555l-.0995319.0063331h-18c-.55670885 0-.90721203-.578208-.68215443-1.0625222l.09935827-.1789917c.03336894-.0634802.07849425-.1553233.1328858-.276556.16079872-.3584025.32407404-.8077797.47819534-1.3529581.41968352-1.4845605.68465178-3.3521038.71811562-5.6337078l.0035994-.4952642c0-4.30253269 3.29359499-7.83579679 7.50020832-8.21609411l-.00020832-1.53390589c0-.41421356.33578644-.75.75-.75zm8.25 6c.6005517 0 .9437585.66152734.6371068 1.14654905l-.0609408.08358925-2.725166 3.2698617h2.149c.3796958 0 .693491.2821539.7431534.6482294l.0068466.1017706c0 .3796958-.2821539.693491-.6482294.7431534l-.1017706.0068466h-3.75c-.6005517 0-.9437585-.6615273-.6371068-1.146549l.0609408-.0835893 2.723166-3.2698617h-2.147c-.3796958 0-.693491-.28215388-.7431534-.64822944l-.0068466-.10177056c0-.37969577.2821539-.69349096.6482294-.74315338l.1017706-.00684662zm5.25-6c.5939419 0 .9388.64886635.6443325 1.13465246l-.0586809.08386883-2.0266516 2.53147871h1.441c.3796958 0 .693491.28215388.7431534.64822944l.0068466.10177056c0 .37969577-.2821539.69349096-.6482294.74315338l-.1017706.00684662h-3c-.5939419 0-.9388-.64886635-.6443325-1.13465246l.0586809-.08386883 2.0246516-2.53147871h-1.439c-.3796958 0-.693491-.28215388-.7431534-.64822944l-.0068466-.10177056c0-.37969577.2821539-.69349096.6482294-.74315338l.1017706-.00684662zm-12.2166334 21.5387473c.1166716-.3974426.5334435-.6250524.9308861-.5083807.3974426.1166716.6250524.5334435.5083807.9308861-.3546399 1.2080828-1.4630729 2.0379014-2.7221334 2.0379014-1.25906054 0-2.36749352-.8298186-2.72213345-2.0379014-.11667164-.3974426.11093817-.8142145.50838075-.9308861.36432236-.1069491.74488674.075394.895651.4126592l.03523515.0957215c.16713203.5693361.68950598.9604068 1.28286655.9604068.5477175 0 1.0349493-.33322 1.2381209-.8322829z" fill="currentColor" fill-rule="evenodd"/></svg>
