<svg height="24" viewBox="0 0 24 24" width="24" xmlns="http://www.w3.org/2000/svg"><path d="m12.3192319 7.17033132 1.5793445 2.25620634c.3167145.45244929.2066797 1.07597974-.2457696 1.39269424-.1680836.1176585-.3682903.1807681-.5734624.1807681h-3.15868884c-.55228475 0-1-.4477153-1-1 0-.2051721.06310961-.40537881.18076808-.57346234l1.57934446-2.25620634c.3167145-.4524493.9402449-.56248409 1.3926942-.24576958.0956414.06694892.1788207.15012825.2457696.24576958zm0 9.65933738 1.5793445-2.2562064c.3167145-.4524493.2066797-1.0759797-.2457696-1.3926942-.1680836-.1176585-.3682903-.1807681-.5734624-.1807681h-3.15868884c-.55228475 0-1 .4477153-1 1 0 .2051721.06310961.4053788.18076808.5734623l1.57934446 2.2562064c.3167145.4524493.9402449.5624841 1.3926942.2457696.0956414-.066949.1788207-.1501283.2457696-.2457696z" fill="currentColor" fill-rule="evenodd"/></svg>
