<svg height="24" viewBox="0 0 24 24" width="24" xmlns="http://www.w3.org/2000/svg"><path d="m12 0c6.627417 0 12 5.372583 12 12s-5.372583 12-12 12-12-5.372583-12-12 5.372583-12 12-12zm0 1.5c-5.79898987 0-10.5 4.70101013-10.5 10.5 0 5.7989899 4.70101013 10.5 10.5 10.5 5.7989899 0 10.5-4.7010101 10.5-10.5 0-5.79898987-4.7010101-10.5-10.5-10.5zm-2.26446612 4.38182974c.62231122.01289073 1.17190622.40902303 1.38168922.99749963l3.291969 9.32491193 2.1898559-3.8267484c.1335944-.2334546.3819753-.3774929.650952-.3774929h3c.4142136 0 .75.3357864.75.75s-.3357864.75-.75.75h-2.5650683l-1.9741238 3.4497587c-.291487.5089139-.8528351.8012709-1.4369235.7483674-.5840885-.0529034-1.083772-.4413627-1.2791075-.9944555l-3.29034332-9.32031774-2.25807606 5.64519014c-.11389752.2847438-.38967908.471457-.69635752.471457h-3c-.41421356 0-.75-.3357864-.75-.75s.33578644-.75.75-.75h2.49222566l2.07235729-5.18088276c.23311199-.57714491.7986397-.95017823 1.42095093-.9372875z" fill="currentColor" fill-rule="evenodd"/></svg>
