<svg height="24" viewBox="0 0 24 24" width="24" xmlns="http://www.w3.org/2000/svg"><path d="m15.37302 9.704c1.448 0 2.625 1.177 2.625 2.625v5.141l3.063.68c1.836.408 3.092 2.127 2.922 4l-.1 1.121c-.0318182.3536364-.3.6287603-.6430128.6758603l-.1049872.0071397c-.021 0-.042-.001-.064-.003-.414-.037-.719-.402-.682-.814l.1-1.122c.102-1.124-.651-2.156-1.753-2.401l-3.651-.811c-.346-.077-.587-.378-.587-.732v-5.742c0-.62-.505-1.125-1.125-1.125s-1.125.505-1.125 1.125v9.205c0 .286-.159.543-.415.671-.103.052-.219.079-.335.079-.161 0-.321-.053-.45-.15l-1.477-1.108c-.136-.102-.298-.156-.468-.156-.25 0-.479.114-.628.313-.207.276-.207.662 0 .939l.474.631c.12.16.171.358.143.556s-.132.374-.292.494c-.132.1-.288.152-.451.152-.235 0-.45900004-.112-.60000004-.3l-.474-.632c-.604-.807-.604-1.932 0-2.738.429-.572 1.11300004-.914 1.83000004-.914.496 0 .969.157 1.366.455l.277.208v-7.705c0-1.447 1.177-2.625 2.625-2.625zm-13.12900004-9.704c.055 0 .108.002.161.005 5.301.277 8.37400004 1.821 9.62600004 3.309 1.578-1.769 5.237-3.047 9.565-3.303.05-.004.105-.006.159-.006 1.169 0 2.152.917 2.238 2.087.005.057.007.112.007.168v12.6c0 .414-.336.75-.75.75s-.75-.336-.75-.75v-12.6c0-.02-.001-.041-.002-.061-.029-.388-.356-.693-.746-.693l-.056.002c-2.62.155-5.022.712-6.767 1.568-1.505.738-2.179 1.532-2.179 1.992v3.887c0 .414-.336.75-.75.75s-.75-.336-.75-.75v-3.887c0-1.08-2.62100004-3.234-8.93500004-3.565-.029-.002-.049-.003-.069-.003-.412.001-.747.339-.746.752v13.366c-.002.397.306.724.7.746 2.103.062 4.195.431 6.208 1.097.19.063.344.196.434.375s.105.382.042.573c-.101.307-.387.514-.711.514-.08 0-.159-.013-.236-.038-1.875-.62-3.826-.964-5.8-1.022-1.207-.066-2.142-1.054-2.13701996-2.248v-13.361c-.00298004-1.239 1.00401996-2.251 2.24401996-2.254zm1.473 12.309c.028 0 .056.002.084.005 1.972.223 3.921.673 5.792 1.339.189.067.34.204.42600004.385.086.181.096.385.029.573-.10500004.298-.38900004.499-.70600004.499-.086 0-.171-.015-.252-.044-1.762-.626-3.598-1.051-5.457-1.261-.199-.022-.377-.121-.502-.278s-.181-.353-.159-.552c.043-.38.364-.666.745-.666zm.052-4.042c.028 0 .056.002.085.005 1.956.224 3.887.675 5.741 1.339.189.068.34.204.42500004.385.086.181.096.385.028.573-.10600004.298-.39000004.498-.70600004.498-.086 0-.172-.015-.253-.044-1.746-.625-3.565-1.049-5.406-1.261-.411-.047-.707-.42-.659-.831.044-.379.364-.664.745-.664zm16.71100004.003c.374 0 .693.281.742.653.026.199-.027.396-.149.554-.122.159-.299.26-.498.286-.355.046-.702.097-1.04.152-.042.007-.082.01-.121.01-.37 0-.681-.265-.74-.63-.032-.198.015-.396.132-.558s.291-.27.489-.302c.351-.057.716-.11 1.086-.158.032-.004.066-.007.099-.007zm.046-3.812c.383 0 .703.286.746.666.022.199-.034.395-.159.552-.124.157-.302.256-.501.278-1.86.21-3.697.634-5.461 1.261-.081.029-.165.044-.251.044-.316 0-.6-.2-.707-.499-.138-.39.066-.82.455-.958 1.872-.666 3.822-1.116 5.795-1.339.028-.003.056-.005.083-.005zm-16.75800004-.006c.027 0 .055.001.082.005 1.96.22 3.893.671 5.746 1.34.188.068.339.205.42400004.387.085.182.094.385.026.574-.10500004.295-.38900004.494-.70400004.494-.087 0-.173-.015-.255-.045-1.743-.629-3.561-1.053-5.403-1.26-.411-.046-.707-.418-.661-.829.043-.38.363-.666.745-.666z" fill="currentColor" fill-rule="evenodd"/></svg>
