<svg height="24" viewBox="0 0 24 24" width="24" xmlns="http://www.w3.org/2000/svg"><path d="m7 24c-.827 0-1.5-.673-1.5-1.5v-9h-3c-.827 0-1.5-.673-1.5-1.5v-5.25c0-3.722 3.028-6.75 6.75-6.75h1.5c.414 0 .75.336.75.75 0 1.241 1.009 2.25 2.25 2.25s2.25-1.009 2.25-2.25c0-.414.336-.75.75-.75h1.5c3.722 0 6.75 3.028 6.75 6.75v5.25c0 .827-.673 1.5-1.5 1.5h-3v9c0 .827-.673 1.5-1.5 1.5zm-.75-16.5c.414 0 .75.336.75.75v14.25h10.5v-14.25c0-.414.336-.75.75-.75s.75.336.75.75v3.75h3v-5.25c0-2.895-2.355-5.25-5.25-5.25h-.825c-.35 1.732-1.875 3-3.675 3s-3.324-1.268-3.675-3h-.825c-2.895 0-5.25 2.355-5.25 5.25v5.25h3v-3.75c0-.414.336-.75.75-.75z" fill="currentColor" fill-rule="evenodd"/></svg>
