<svg height="24" viewBox="0 0 24 24" width="24" xmlns="http://www.w3.org/2000/svg"><path d="m12.002-.003c.3796958 0 .693491.28215388.7431534.64822944l.0068466.10177056.000482 2.28184511c4.3719614.36091449 7.8577584 3.8467115 8.2186729 8.21867289l2.2808451-.000518c.4142136 0 .75.3357864.75.75 0 .3796958-.2821539.693491-.6482294.7431534l-.1017706.0068466-2.2807745.0006264c-.3605304 4.3723622-3.8464969 7.8585905-8.2187435 8.2195285l-.000482 2.2798451c0 .4142136-.3357864.75-.75.75-.3796958 0-.693491-.2821539-.7431534-.6482294l-.0068466-.1017706.0005132-2.279763c-4.37269506-.3604897-7.85915269-3.8468883-8.21973429-8.2195573l-2.28077891-.0006797c-.41421356 0-.75-.3357864-.75-.75 0-.3796958.28215388-.693491.64822944-.7431534l.10177056-.0068466 2.28084511.000518c.36094187-4.37229311 3.84724047-7.85828735 8.21966809-8.21875499l-.0005132-2.28176301c0-.41421356.3357864-.75.75-.75zm.750487 4.5380798-.000487 2.2119202c0 .41421356-.3357864.75-.75.75-.3796958 0-.693491-.28215388-.7431534-.64822944l-.0068466-.10177056.0005192-2.2120201c-3.54339395.35156165-6.36141092 3.16927653-6.7134394 6.7125331l2.2129202-.000513c.41421356 0 .75.3357864.75.75 0 .3796958-.28215388.693491-.64822944.7431534l-.10177056.0068466-2.21301605.0005216c.35161247 3.5437101 3.16981949 6.3619049 6.71353525 6.7134985l-.0005192-2.2140201c0-.4142136.3357864-.75.75-.75.3796958 0 .693491.2821539.7431534.6482294l.0068466.1017706.000487 2.2139202c3.5432648-.3520293 6.3609845-3.1700585 6.7125355-6.7134641l-2.2130225-.0004561c-.4142136 0-.75-.3357864-.75-.75 0-.3796958.2821539-.693491.6482294-.7431534l.1017706-.0068466 2.2129202.000513c-.3519952-3.54292119-3.169512-6.36043804-6.7124332-6.7124332z" fill="currentColor" fill-rule="evenodd"/></svg>
