<svg height="24" viewBox="0 0 24 24" width="24" xmlns="http://www.w3.org/2000/svg"><path d="m12 3.25c4.8321336 0 8.75 3.91786644 8.75 8.75 0 4.8321336-3.9178664 8.75-8.75 8.75-4.83213356 0-8.75-3.9178664-8.75-8.75 0-4.83213356 3.91786644-8.75 8.75-8.75zm0 1.5c-4.00370644 0-7.25 3.24629356-7.25 7.25 0 4.0037064 3.24629356 7.25 7.25 7.25 4.0037064 0 7.25-3.2462936 7.25-7.25 0-4.00370644-3.2462936-7.25-7.25-7.25zm0 3.5c.3796958 0 .693491.28215388.7431534.64822944l.0068466.10177056v3.912l1.7435951 1.5233197c.283513.2478227.3355894.6619273.1379025.9694792l-.0668173.0887962c-.2478227.283513-.6619273.3355894-.9694792.1379025l-.0887962-.0668173-2-1.7482284c-.1357763-.118684-.2233177-.2814204-.2487266-.4576025l-.0076783-.1070778v-4.2517716c0-.41421356.3357864-.75.75-.75z" fill="currentColor" fill-rule="evenodd"/></svg>
