<svg height="24" viewBox="0 0 24 24" width="24" xmlns="http://www.w3.org/2000/svg"><path d="m12 0c6.617 0 12 5.383 12 12s-5.383 12-12 12-12-5.383-12-12 5.383-12 12-12zm0 1.5c-5.79 0-10.5 4.71-10.5 10.5s4.71 10.5 10.5 10.5 10.5-4.71 10.5-10.5-4.71-10.5-10.5-10.5zm.001 6c.414 0 .75.336.75.75v3.439l4.467 4.468c.142.142.22.33.22.53s-.078.389-.22.53-.331.221-.531.221-.389-.078-.53-.22l-4.687-4.688c-.07-.07-.125-.152-.163-.245-.003-.008-.006-.017-.009-.025-.032-.086-.047-.172-.047-.26v-3.75c0-.414.336-.75.75-.75z" fill="currentColor" fill-rule="evenodd"/></svg>
