<svg height="24" viewBox="0 0 24 24" width="24" xmlns="http://www.w3.org/2000/svg"><path d="m14.75 2c1.241 0 2.25 1.009 2.25 2.25v.75h5.25c.414 0 .75.336.75.75s-.336.75-.75.75h-2.25v12.75c0 1.241-1.009 2.25-2.25 2.25h-10.5c-1.241 0-2.25-1.009-2.25-2.25v-12.75h-2.25c-.414 0-.75-.336-.75-.75s.336-.75.75-.75h5.25v-.75c0-1.241 1.009-2.25 2.25-2.25zm3.75 4.5h-12v12.75c0 .414.336.75.75.75h10.5c.414 0 .75-.336.75-.75zm-8.25 3c.414 0 .75.336.75.75v6c0 .414-.336.75-.75.75s-.75-.336-.75-.75v-6c0-.414.336-.75.75-.75zm4.5 0c.414 0 .75.336.75.75v6c0 .414-.336.75-.75.75s-.75-.336-.75-.75v-6c0-.414.336-.75.75-.75zm0-6h-4.5c-.414 0-.75.336-.75.75v.75h6v-.75c0-.414-.336-.75-.75-.75z" fill="currentColor" fill-rule="evenodd"/></svg>
