<svg height="24" viewBox="0 0 24 24" width="24" xmlns="http://www.w3.org/2000/svg"><path d="m13.25 4c1.4625318 0 2.6584043 1.1417046 2.7449812 2.58247767l.0050188.16752233v.75h3.75c.4142136 0 .75.33578644.75.75 0 .37969577-.2821539.69349096-.6482294.74315338l-.1017706.00684662h-1.75v8.7477319c0 1.463555-1.141528 2.6605833-2.5824581 2.7472444l-.1675419.0050237h-7c-1.46271519 0-2.65841786-1.1428226-2.74498196-2.5846272l-.00501804-.1676409v-8.7477319h-1.75c-.41421356 0-.75-.33578644-.75-.75 0-.37969577.28215388-.69349096.64822944-.74315338l.10177056-.00684662h3.75v-.75c0-1.46253184 1.1417046-2.65840428 2.5824777-2.74498121l.1675223-.00501879zm3.25 5h-9.5v8.7477319c0 .6485613.49204202 1.1816964 1.12222614 1.2458049l.12777386.0064632h7c.6470302 0 1.1795116-.4926 1.2435443-1.1241996l.0064557-.1280685zm-2.75 2c.3796958 0 .693491.2821539.7431534.6482294l.0068466.1017706v5c0 .4142136-.3357864.75-.75.75-.3796958 0-.693491-.2821539-.7431534-.6482294l-.0068466-.1017706v-5c0-.4142136.3357864-.75.75-.75zm-4 0c.3796958 0 .693491.2821539.7431534.6482294l.0068466.1017706v5c0 .4142136-.3357864.75-.75.75-.37969577 0-.69349096-.2821539-.74315338-.6482294l-.00684662-.1017706v-5c0-.4142136.33578644-.75.75-.75zm3.5-5.5h-3c-.64720869 0-1.1795339.49187466-1.24354639 1.12219476l-.00645361.12780524v.75h5.5v-.75c0-.64720869-.4918747-1.1795339-1.1221948-1.24354639z" fill="currentColor" fill-rule="evenodd"/></svg>
