<svg height="24" viewBox="0 0 24 24" width="24" xmlns="http://www.w3.org/2000/svg"><path d="m15.75 11.5c.96 0 1.808.615 2.121 1.5h2.379c2.068 0 3.75 1.682 3.75 3.75v3c0 1.241-1.009 2.25-2.25 2.25h-1.756c-.432.907-1.352 1.5-2.369 1.5s-1.937-.593-2.369-1.5h-3.513c-.432.907-1.352 1.5-2.369 1.5s-1.937-.593-2.369-1.5h-.255c-1.241 0-2.25-1.009-2.25-2.25v-3c0-.414.336-.75.75-.75s.75.336.75.75v3c0 .414.336.75.75.75h.027c.182-1.271 1.278-2.25 2.598-2.25s2.416.979 2.598 2.25h3.054c.126-.864.679-1.616 1.473-1.994v-4.756c0-.414-.336-.75-.75-.75h-1.5c-.414 0-.75-.336-.75-.75s.336-.75.75-.75zm-9-10.5c3.722 0 6.75 3.028 6.75 6.75s-3.028 6.75-6.75 6.75-6.75-3.028-6.75-6.75 3.028-6.75 6.75-6.75zm0 1.5c-2.895 0-5.25 2.355-5.25 5.25s2.355 5.25 5.25 5.25 5.25-2.355 5.25-5.25-2.355-5.25-5.25-5.25zm3.23595043 2.64996283c.30126487.22590978.38418657.63495568.21007117.95643989l-.0599844.09354771-2.90558296 3.87477637c-.26122086.3474165-.66021806.5645356-1.09380083.5952045-.37938493.0268354-.75264802-.0913861-1.04624711-.3273465l-.12073639-.1082547-1.5-1.50000001c-.29289321-.29289322-.29289321-.76776696 0-1.06066018.26626657-.26626656.68293025-.29047261.97654174-.07261815l.08411844.07261815 1.50066991 1.49933009 2.90496283-3.87295043c.24850076-.33139138.71859623-.3985875 1.0499876-.15008674zm6.53804957 15.95903717c.109.517.571.891 1.101.891.531 0 .995-.377 1.102-.898.015-.078.023-.153.023-.227 0-.62-.505-1.125-1.125-1.125-.074 0-.149.008-.224.022-.007.001-.019.003-.026.005-.498.103-.875.567-.875 1.098 0 .074.008.149.022.224.001.003.002.006.002.01zm-7.149-1.359c-.62 0-1.125.505-1.125 1.125s.505 1.125 1.125 1.125 1.125-.505 1.125-1.125-.505-1.125-1.125-1.125zm12.375.75c.414 0 .75-.336.75-.75v-2.25h-2.25c-.414 0-.75-.336-.75-.75s.336-.75.75-.75h2.118c-.313-.879-1.158-1.5-2.118-1.5h-2.25v3.777c1.148.165 2.058 1.075 2.223 2.223z" fill="currentColor" fill-rule="evenodd"/></svg>
