<svg height="24" viewBox="0 0 24 24" width="24" xmlns="http://www.w3.org/2000/svg"><path d="m17.2565208 20.5c-.96 0-1.808-.615-2.121-1.5h-7.75800004c-.314.885-1.162 1.5-2.121 1.5s-1.808-.615-2.121-1.5h-1.462c-.019 0-.038-.001-.057-.002-.946-.068-1.66800001-.896-1.608-1.845l-.001-6.253c-.12900001-1.992 1.417-3.752 3.445-3.898.019-.001.036-.002.054-.002h4.75v-.75c0-1.241 1.009-2.25 2.25000004-2.25h11.25c1.241 0 2.25 1.009 2.25 2.25v10.5c0 1.241-1.009 2.25-2.25 2.25h-2.379c-.313.885-1.161 1.5-2.121 1.5zm0-3c-.414 0-.75.336-.75.75s.336.75.75.75.75-.336.75-.75-.337-.75-.75-.75zm-12.00000004 0c-.414 0-.75.336-.75.75s.336.75.75.75.75-.336.75-.75-.336-.75-.75-.75zm16.50000004 0c.414 0 .75-.336.75-.75v-2.25h-12.75000004v3h5.37900004c.314-.885 1.162-1.5 2.121-1.5s1.808.615 2.121 1.5zm-13.50000004 0v-9h-1.5v2.902c-.014.884-.737 1.598-1.612 1.598h-3.638v1.5h1.207c.414 0 .75.336.75.75s-.336.75-.75.75h-1.207v1.2c-.009.164.078.281.203.3h1.426c.314-.885 1.162-1.5 2.121-1.5s1.808.615 2.121 1.5zm14.25000004-4.5v-6.75c0-.414-.336-.75-.75-.75h-11.25c-.414 0-.75000004.336-.75000004.75v6.75zm-17.37500004-1.5c.074 0 .124-.047.125-.11v-2.89h-1.721c-1.197.1-2.106 1.152-2.03 2.353v.647z" fill="currentColor" fill-rule="evenodd" transform="matrix(-1 0 0 1 24.00652 0)"/></svg>
