<svg height="24" viewBox="0 0 24 24" width="24" xmlns="http://www.w3.org/2000/svg"><path d="m11.999.749c.211 0 .421.03.626.089.578.166 1.056.548 1.346 1.074l9.753 18.005c.181.328.277.703.277 1.082 0 1.241-1.009 2.25-2.25 2.25h-19.5c-.379 0-.755-.097-1.087-.28-1.086-.6-1.482-1.971-.882-3.057l9.747-17.995c.207-.376.512-.681.884-.887.334-.184.709-.281 1.086-.281zm.001 1.5c-.127 0-.248.032-.361.094-.124.068-.225.17-.294.294l-9.747 17.995c-.099.179-.122.382-.066.575s.182.352.357.449c.111.061.236.094.362.094h19.5c.414 0 .75-.337.75-.75 0-.126-.032-.251-.094-.362l-9.752-18.005c-.095-.172-.254-.299-.446-.354-.069-.02-.139-.03-.209-.03zm.002 15.001c.045 0 .088.004.13.011.513.06.923.47.983.983.008.042.011.086.011.131s-.004.088-.011.131c-.06.513-.47.923-.983.983-.043.007-.086.01-.131.01-.044 0-.088-.004-.13-.011-.513-.06-.923-.47-.983-.983-.008-.043-.012-.087-.012-.131s.004-.088.012-.131c.06-.513.47-.922.983-.982.042-.008.086-.011.131-.011zm-.001-9.751c.413 0 .75.336.75.75v6.75c0 .414-.336.75-.75.75s-.75-.336-.75-.75v-6.75c0-.414.336-.75.75-.75z" fill="currentColor" fill-rule="evenodd"/></svg>
